HIERARCHY
ROOT Hips
{
	OFFSET 0.000000 0.000000 0.000000
	CHANNELS 6 Xposition Yposition Zposition Yrotation Xrotation Zrotation
	JOINT Chest
	{
		OFFSET 0.000000 -0.009281 11.569106
		CHANNELS 3 Yrotation Xrotation Zrotation
		JOINT Chest2
		{
			OFFSET -0.000000 0.016865 9.269641
			CHANNELS 3 Yrotation Xrotation Zrotation
			JOINT Chest3
			{
				OFFSET -0.000000 0.000001 8.374491
				CHANNELS 3 Yrotation Xrotation Zrotation
				JOINT Chest4
				{
					OFFSET -0.000000 0.000001 8.374493
					CHANNELS 3 Yrotation Xrotation Zrotation
					JOINT Neck
					{
						OFFSET -0.000000 0.000002 12.152554
						CHANNELS 3 Yrotation Xrotation Zrotation
						JOINT Head
						{
							OFFSET -0.000000 0.040101 7.802319
							CHANNELS 3 Yrotation Xrotation Zrotation
							End Site
							{
								OFFSET -0.000000 0.020947 14.853096
							}
						}
					}
					JOINT RightCollar
					{
						OFFSET 2.894404 0.000001 6.791374
						CHANNELS 3 Yrotation Xrotation Zrotation
						JOINT RightShoulder
						{
							OFFSET 13.574684 0.000001 0.000000
							CHANNELS 3 Yrotation Xrotation Zrotation
							JOINT RightElbow
							{
								OFFSET 23.923903 0.000002 0.000000
								CHANNELS 3 Yrotation Xrotation Zrotation
								JOINT RightWrist
								{
									OFFSET 19.846718 0.012767 0.000000
									CHANNELS 3 Yrotation Xrotation Zrotation
									End Site
									{
										OFFSET 14.973145 0.000001 0.000000
									}
								}
							}
						}
					}
					JOINT LeftCollar
					{
						OFFSET -2.894404 0.000001 6.791374
						CHANNELS 3 Yrotation Xrotation Zrotation
						JOINT LeftShoulder
						{
							OFFSET -13.574684 -0.000001 0.000000
							CHANNELS 3 Yrotation Xrotation Zrotation
							JOINT LeftElbow
							{
								OFFSET -23.923903 -0.000002 0.000000
								CHANNELS 3 Yrotation Xrotation Zrotation
								JOINT LeftWrist
								{
									OFFSET -19.846718 0.012763 0.000000
									CHANNELS 3 Yrotation Xrotation Zrotation
									End Site
									{
										OFFSET -14.973145 -0.000001 0.000000
									}
								}
							}
						}
					}
				}
			}
		}
	}
	JOINT RightHip
	{
		OFFSET 9.469263 0.004643 0.045487
		CHANNELS 3 Yrotation Xrotation Zrotation
		JOINT RightKnee
		{
			OFFSET 0.000000 0.002661 -40.478676
			CHANNELS 3 Yrotation Xrotation Zrotation
			JOINT RightAnkle
			{
				OFFSET 0.000000 0.049106 -35.224068
				CHANNELS 3 Yrotation Xrotation Zrotation
				JOINT RightToe
				{
					OFFSET -0.000001 12.539529 -6.151390
					CHANNELS 3 Yrotation Xrotation Zrotation
					End Site
					{
						OFFSET -0.000001 5.044994 -1.291870
					}
				}
			}
		}
	}
	JOINT LeftHip
	{
		OFFSET -9.469263 0.004641 0.045487
		CHANNELS 3 Yrotation Xrotation Zrotation
		JOINT LeftKnee
		{
			OFFSET 0.000000 0.002661 -40.478676
			CHANNELS 3 Yrotation Xrotation Zrotation
			JOINT LeftAnkle
			{
				OFFSET 0.000000 0.049106 -35.224068
				CHANNELS 3 Yrotation Xrotation Zrotation
				JOINT LeftToe
				{
					OFFSET -0.000001 12.539529 -6.151390
					CHANNELS 3 Yrotation Xrotation Zrotation
					End Site
					{
						OFFSET -0.000001 5.044994 -1.291870
					}
				}
			}
		}
	}
}
MOTION
Frames: 8
Frame Time: 0.016667
1.739379 -21.895905 82.783478 -2.124360 0.263300 -113.082729 -1.903908 -4.432332 1.618834 -0.820037 -1.955305 0.710667 -0.820037 -1.955303 0.710668 -0.612694 -1.467437 0.530326 1.468239 -13.455748 -3.633809 1.311630 11.181955 -6.284235 10.343072 6.516273 -0.997444 44.337067 -16.584546 -14.721417 -30.120984 -60.326300 86.237367 -46.483399 42.486297 50.578377 -7.913291 5.358467 -6.307850 -41.008855 -10.026843 19.513587 -8.161023 -65.653308 -55.085247 34.624131 22.645841 -74.922367 0.783756 4.906323 13.060128 -3.705208 -15.290613 5.086064 7.980275 8.381781 8.551020 -1.089912 -1.265762 -0.191646 1.902896 2.188596 -8.981222 2.904502 -4.062384 -6.193260 -7.562233 -2.969811 -9.153131 -3.780252 0.101082 -0.094699 
1.624458 -22.280409 82.769348 -2.151372 0.371980 -112.966650 -1.944107 -4.319142 1.535244 -0.812690 -1.920592 0.682081 -0.812691 -1.920592 0.682082 -0.607317 -1.441356 0.508961 1.446347 -13.544434 -3.594662 1.289530 11.017434 -6.216918 10.329056 6.543082 -1.018896 44.266647 -16.574251 -14.727498 -30.244105 -60.413378 86.288908 -46.399295 42.518720 50.648978 -7.995634 5.392585 -6.283103 -41.062868 -9.885789 19.722701 -8.082281 -65.787043 -55.189291 34.570716 22.610892 -75.008174 0.767852 4.734568 12.697167 -3.443089 -14.989480 4.641794 8.060039 8.660735 8.923855 -1.168661 -1.461160 -0.165542 2.069107 2.279846 -7.897397 2.634250 -4.026633 -6.263294 -6.619104 -2.707620 -9.155590 -3.747169 -0.146848 -0.064651 
1.514339 -22.585623 82.818336 -2.194005 0.454632 -113.054739 -2.035871 -4.233304 1.600408 -0.804937 -1.887112 0.686670 -0.804937 -1.887111 0.686673 -0.601528 -1.416244 0.512473 1.439159 -13.624758 -3.563898 1.291464 10.868810 -6.159788 10.355239 6.537339 -0.989312 44.253520 -16.611355 -14.806008 -30.171223 -60.513960 86.217471 -46.365523 42.525482 50.653701 -8.087113 5.500965 -6.220725 -41.116694 -9.904264 19.954898 -7.589394 -65.810812 -55.610068 34.496150 22.706923 -75.124643 0.694890 4.527139 12.500300 -3.117735 -14.642771 3.990441 8.164670 9.148997 9.142663 -1.179703 -1.773946 -0.165662 2.054763 2.412035 -6.629937 2.354502 -4.642071 -6.474243 -5.338405 -1.940340 -8.108057 -3.801096 -0.354893 -0.094736 
1.418517 -22.921650 82.892418 -2.196170 0.392769 -113.281419 -2.044000 -4.201925 1.744743 -0.790316 -1.877322 0.734623 -0.790316 -1.877322 0.734619 -0.590428 -1.408946 0.548489 1.436256 -13.636206 -3.551461 1.291402 10.847736 -6.137180 10.379669 6.465701 -0.927777 44.248421 -16.612485 -14.865984 -29.989455 -60.595669 86.170411 -46.395942 42.518423 50.591672 -8.100908 5.584739 -6.140410 -41.204578 -9.963410 20.079527 -7.128561 -65.658649 -55.927648 34.351671 22.720568 -75.160194 0.679900 4.307244 12.406467 -2.634568 -14.299063 3.201591 7.851401 9.814200 8.845433 -0.881948 -2.095688 -0.113691 1.814770 2.476410 -5.392335 2.155963 -5.455293 -5.979632 -3.499125 -1.099691 -6.619483 -4.037622 -0.558326 -0.095822 
1.292164 -23.210680 82.958595 -2.260052 0.300988 -113.619186 -2.080560 -4.257048 1.944743 -0.768676 -1.904597 0.808630 -0.768676 -1.904597 0.808629 -0.573934 -1.429470 0.604024 1.428667 -13.565941 -3.547341 1.275945 10.977946 -6.134048 10.412095 6.471806 -0.849017 44.193267 -16.710225 -14.926065 -29.663679 -60.645325 86.110927 -46.481650 42.509182 50.491661 -8.044304 5.602002 -6.108380 -41.309155 -9.848626 20.145339 -6.941749 -65.386405 -55.962482 34.134652 22.432699 -75.128878 0.556734 4.172912 12.243720 -1.962094 -14.155772 1.919642 7.125226 10.491527 8.330648 -0.335558 -2.296693 -0.136187 1.390359 2.428228 -4.138063 1.954956 -6.302573 -3.734744 -1.351756 -0.399227 -5.581821 -4.313178 -0.737623 -0.081796 
1.274944 -23.484331 83.065361 -2.434357 0.215151 -113.996595 -2.161226 -4.392166 2.160169 -0.746792 -1.958829 0.883908 -0.746792 -1.958828 0.883910 -0.557207 -1.470207 0.660473 1.425064 -13.450847 -3.543504 1.266133 11.191507 -6.130896 10.442964 6.463600 -0.794971 44.075641 -16.849547 -14.929023 -29.253588 -60.689871 86.042434 -46.637051 42.499459 50.346564 -7.978307 5.626490 -6.143501 -41.389399 -9.526692 20.235549 -6.774212 -65.177954 -55.981603 33.872267 21.939927 -75.059613 0.227775 3.894299 11.578285 -1.117020 -13.921064 0.243266 5.966170 10.913526 7.927182 0.392028 -2.273406 -0.168629 0.923205 2.189424 -2.553143 1.709032 -7.184008 -0.310190 0.903664 0.288358 -4.800582 -4.589327 -0.830069 -0.070230 
1.328707 -23.819378 83.197365 -2.679913 0.125999 -114.334443 -2.238725 -4.583077 2.349421 -0.725092 -2.018056 0.944895 -0.725092 -2.018057 0.944901 -0.540643 -1.514670 0.706206 1.426186 -13.326857 -3.540073 1.264744 11.421755 -6.126838 10.458103 6.433102 -0.784391 43.953200 -16.947890 -14.900999 -28.878743 -60.766793 85.980129 -46.818150 42.530557 50.193687 -7.914743 5.623001 -6.188826 -41.430015 -9.106877 20.264321 -6.539063 -65.094039 -56.091416 33.643825 21.433327 -74.959243 -0.257509 3.416031 10.053597 -0.198855 -13.464191 -1.752186 4.335529 10.942577 7.555176 1.304879 -1.984813 -0.203636 0.389905 1.751648 -0.532246 1.290173 -7.801159 3.257538 3.348469 0.750107 -3.667797 -4.808754 -0.798700 -0.043828 
1.532627 -24.199930 83.343857 -2.920441 0.033593 -114.630218 -2.275242 -4.744813 2.528273 -0.703357 -2.064286 0.984657 -0.703357 -2.064286 0.984662 -0.524135 -1.549354 0.736041 1.421029 -13.233173 -3.530389 1.255203 11.595663 -6.112784 10.463019 6.384377 -0.777009 43.896762 -16.965565 -14.936876 -28.539290 -60.851016 85.841415 -46.958244 42.588931 50.082536 -7.873514 5.565281 -6.242196 -41.467684 -8.781943 20.237565 -6.351822 -65.013661 -56.191201 33.438233 21.045307 -74.863989 -0.869513 2.770129 7.882390 0.868610 -12.845410 -3.980479 2.109811 10.607609 6.728808 2.404382 -1.389983 -0.235842 -0.085904 1.102124 2.007598 0.729769 -7.865660 6.296794 5.738784 0.797281 -2.111332 -4.862073 -0.617520 -0.018037 
